<?xml version="1.0" encoding="utf-8"?>
<!-- Generator: Adobe Illustrator 24.1.0, SVG Export Plug-In . SVG Version: 6.00 Build 0)  -->
<svg version="1.1" id="Layer_1" xmlns="http://www.w3.org/2000/svg" xmlns:xlink="http://www.w3.org/1999/xlink" x="0px" y="0px"
	 viewBox="0 0 12 12" style="enable-background:new 0 0 12 12;" xml:space="preserve">
<path d="M0.1,0.9C0,0.7,0,0.3,0.1,0.1s0.5-0.2,0.7,0L6,5.3l5.1-5.1c0.2-0.2,0.5-0.2,0.7,0s0.2,0.5,0,0.7l0,0L6.7,6l5.1,5.1
	c0.2,0.2,0.2,0.5,0,0.7s-0.5,0.2-0.7,0L6,6.7l-5.1,5.1c-0.2,0.2-0.5,0.2-0.7,0c-0.2-0.2-0.2-0.5,0-0.7L5.3,6L0.1,0.9z"/>
</svg>
